# xmcd
#
# Track frame offsets: 
#        150
#        14592
#        29527
#        44689
#        58876
#        73338
#        87506
#        101635
#        115435
#        128172
#        142166
#        156633
#        168846
#        182523
#        195689
#        208945
#        223547
#        237953
#        252676
#        266017
#        279994
#
# Disc length: 4352 seconds
#
# Revision: 0
# Processed by: cddbd v1.5.2PL0 Copyright (c) Steve Scherf et al.
# Submitted via: ExactAudioCopy v0.95b3
#
DISCID=5910fe15
DTITLE=Jimmie Lunceford  - Volume 3 1935-1936 Complete Edition
DYEAR=1900
DGENRE=
TTITLE0=Sleepy Time Gal
TTITLE1=Bird Of Paradise
TTITLE2=Rhapsody Junior
TTITLE3=Runnin' Wild
TTITLE4=Four Or Five Times
TTITLE5=Four Or Five Times
TTITLE6=(If I Had) Rhythm In My Nursery Rhymes
TTITLE7=Babs
TTITLE8=Swanee River
TTITLE9=Thunder
TTITLE10=Oh! Boy
TTITLE11=(You Take The East. Take The West. Take The North.) I'll Take
TTITLE11=The South
TTITLE12=Avalon
TTITLE13=Charmaine
TTITLE14=Hittin' The Bottle
TTITLE15=My Blue Heaven
TTITLE16=I'm Nuts About Screwy Music
TTITLE17=The Best Things In Life Are Free
TTITLE18=The Melody Man
TTITLE19=The Melody Man
TTITLE20=Jazznocracy-It's Rhythm Coming To Life Again-Rhythm Is Our Bu
TTITLE20=siness-
EXTD=
EXTT0=
EXTT1=
EXTT2=
EXTT3=
EXTT4=
EXTT5=
EXTT6=
EXTT7=
EXTT8=
EXTT9=
EXTT10=
EXTT11=
EXTT12=
EXTT13=
EXTT14=
EXTT15=
EXTT16=
EXTT17=
EXTT18=
EXTT19=
EXTT20=
PLAYORDER=
